<svg xmlns="http://www.w3.org/2000/svg" width="16" height="16" viewBox="0 0 16 16">
    <g fill="none" fill-rule="evenodd">
        <g fill="#333" fill-rule="nonzero" stroke="#333" stroke-width=".5">
            <path d="M137.829 380.006l-3.366-3.366c.834-1.017 1.337-2.32 1.337-3.74 0-3.257-2.643-5.9-5.9-5.9-3.26 0-5.9 2.643-5.9 5.9 0 3.257 2.64 5.9 5.9 5.9 1.42 0 2.72-.5 3.737-1.334l3.366 3.363c.228.228.597.228.826 0 .228-.226.228-.598 0-.823zm-7.929-2.38c-2.609 0-4.729-2.12-4.729-4.726s2.12-4.729 4.729-4.729c2.606 0 4.729 2.123 4.729 4.729s-2.123 4.726-4.729 4.726z" transform="translate(-123 -366)"/>
        </g>
    </g>
</svg>
